<svg xmlns="http://www.w3.org/2000/svg" width="418" height="724" viewBox="0 0 418 724"><rect width="418" height="724" fill="#d9c7a3"/><g transform="scale(1,1.000003816)"><g stroke="none"><polygon fill="#c9b186" points="66.25,114.75 0,76.5 -66.25,114.75 -66.25,38.25 -132.5,0 -66.25,-38.25 -66.25,-114.75 0,-76.5 66.25,-114.75 66.25,-38.25 132.5,0 66.25,38.25"/><polygon fill="#c9b186" points="484.25,114.75 418,76.5 351.75,114.75 351.75,38.25 285.5,0 351.75,-38.25 351.75,-114.75 418,-76.5 484.25,-114.75 484.25,-38.25 550.5,0 484.25,38.25"/><polygon fill="#c9b186" points="275.25,476.75 209,438.5 142.75,476.75 142.75,400.25 76.5,362 142.75,323.75 142.75,247.25 209,285.5 275.25,247.25 275.25,323.75 341.5,362 275.25,400.25"/><polygon fill="#c9b186" points="66.25,838.75 0,800.5 -66.25,838.75 -66.25,762.25 -132.5,724 -66.25,685.75 -66.25,609.25 0,647.5 66.25,609.25 66.25,685.75 132.5,724 66.25,762.25"/><polygon fill="#c9b186" points="484.25,838.75 418,800.5 351.75,838.75 351.75,762.25 285.5,724 351.75,685.75 351.75,609.25 418,647.5 484.25,609.25 484.25,685.75 550.5,724 484.25,762.25"/><polygon fill="#cdb892" points="-170.75,142.75 -114.75,142.75 -66.25,114.75 -66.25,170.75 -38.25,219.25 -94.25,219.25 -142.75,247.25 -142.75,191.25"/><polygon fill="#cdb892" points="209,76.5 181,28 132.5,0 181,-28 209,-76.5 237,-28 285.5,0 237,28"/><polygon fill="#cdb892" points="38.25,219.25 66.25,170.75 66.25,114.75 114.75,142.75 170.75,142.75 142.75,191.25 142.75,247.25 94.25,219.25"/><polygon fill="#cdb892" points="247.25,142.75 303.25,142.75 351.75,114.75 351.75,170.75 379.75,219.25 323.75,219.25 275.25,247.25 275.25,191.25"/><polygon fill="#cdb892" points="456.25,219.25 484.25,170.75 484.25,114.75 532.75,142.75 588.75,142.75 560.75,191.25 560.75,247.25 512.25,219.25"/><polygon fill="#cdb892" points="0,438.5 -28,390 -76.5,362 -28,334 0,285.5 28,334 76.5,362 28,390"/><polygon fill="#cdb892" points="-170.75,581.25 -142.75,532.75 -142.75,476.75 -94.25,504.75 -38.25,504.75 -66.25,553.25 -66.25,609.25 -114.75,581.25"/><polygon fill="#cdb892" points="38.25,504.75 94.25,504.75 142.75,476.75 142.75,532.75 170.75,581.25 114.75,581.25 66.25,609.25 66.25,553.25"/><polygon fill="#cdb892" points="418,438.5 390,390 341.5,362 390,334 418,285.5 446,334 494.5,362 446,390"/><polygon fill="#cdb892" points="247.25,581.25 275.25,532.75 275.25,476.75 323.75,504.75 379.75,504.75 351.75,553.25 351.75,609.25 303.25,581.25"/><polygon fill="#cdb892" points="456.25,504.75 512.25,504.75 560.75,476.75 560.75,532.75 588.75,581.25 532.75,581.25 484.25,609.25 484.25,553.25"/><polygon fill="#cdb892" points="209,800.5 181,752 132.5,724 181,696 209,647.5 237,696 285.5,724 237,752"/><polygon fill="#b99f6f" points="38.25,219.25 19.12,252.37 0,285.5 -19.12,252.37 -38.25,219.25 0,219.25"/><polygon fill="#b99f6f" points="170.75,142.75 189.88,109.62 209,76.5 228.12,109.62 247.25,142.75 209,142.75"/><polygon fill="#b99f6f" points="456.25,219.25 437.12,252.37 418,285.5 398.88,252.37 379.75,219.25 418,219.25"/><polygon fill="#b99f6f" points="-38.25,504.75 -19.12,471.62 0,438.5 19.12,471.62 38.25,504.75 0,504.75"/><polygon fill="#b99f6f" points="247.25,581.25 228.12,614.37 209,647.5 189.88,614.37 170.75,581.25 209,581.25"/><polygon fill="#b99f6f" points="379.75,504.75 398.88,471.62 418,438.5 437.12,471.62 456.25,504.75 418,504.75"/></g><path d="M-142.75 323.75 L-28 390 L66.25 553.25 L66.25 685.75 L181 752 L275.25 915.25M275.25 -191.25 L181 -28 L66.25 38.25 L66.25 170.75 L-28 334 L-142.75 400.25M-66.25 553.25 L28 390 L142.75 323.75 L142.75 191.25 L237 28 L351.75 -38.25 L351.75 -170.75M66.25 -170.75 L66.25 -38.25 L181 28 L275.25 191.25 L275.25 323.75 L390 390 L484.25 553.25M560.75 400.25 L446 334 L351.75 170.75 L351.75 38.25 L237 -28 L142.75 -191.25M142.75 915.25 L237 752 L351.75 685.75 L351.75 553.25 L446 390 L560.75 323.75M484.25 170.75 L390 334 L275.25 400.25 L275.25 532.75 L181 696 L66.25 762.25 L66.25 894.75M351.75 894.75 L351.75 762.25 L237 696 L142.75 532.75 L142.75 400.25 L28 334 L-66.25 170.75M-114.75 142.75 L0 76.5 L114.75 142.75 L303.25 142.75 L418 76.5 L532.75 142.75M512.25 219.25 L323.75 219.25 L209 285.5 L94.25 219.25 L-94.25 219.25M-94.25 504.75 L94.25 504.75 L209 438.5 L323.75 504.75 L512.25 504.75M532.75 581.25 L418 647.5 L303.25 581.25 L114.75 581.25 L0 647.5 L-114.75 581.25" fill="none" stroke-linejoin="miter" stroke-miterlimit="12" stroke="#6b5737" stroke-width="19.06"/><path d="M-142.75 323.75 L-28 390 L66.25 553.25 L66.25 685.75 L181 752 L275.25 915.25M275.25 -191.25 L181 -28 L66.25 38.25 L66.25 170.75 L-28 334 L-142.75 400.25M-66.25 553.25 L28 390 L142.75 323.75 L142.75 191.25 L237 28 L351.75 -38.25 L351.75 -170.75M66.25 -170.75 L66.25 -38.25 L181 28 L275.25 191.25 L275.25 323.75 L390 390 L484.25 553.25M560.75 400.25 L446 334 L351.75 170.75 L351.75 38.25 L237 -28 L142.75 -191.25M142.75 915.25 L237 752 L351.75 685.75 L351.75 553.25 L446 390 L560.75 323.75M484.25 170.75 L390 334 L275.25 400.25 L275.25 532.75 L181 696 L66.25 762.25 L66.25 894.75M351.75 894.75 L351.75 762.25 L237 696 L142.75 532.75 L142.75 400.25 L28 334 L-66.25 170.75M-114.75 142.75 L0 76.5 L114.75 142.75 L303.25 142.75 L418 76.5 L532.75 142.75M512.25 219.25 L323.75 219.25 L209 285.5 L94.25 219.25 L-94.25 219.25M-94.25 504.75 L94.25 504.75 L209 438.5 L323.75 504.75 L512.25 504.75M532.75 581.25 L418 647.5 L303.25 581.25 L114.75 581.25 L0 647.5 L-114.75 581.25" fill="none" stroke-linejoin="miter" stroke-miterlimit="12" stroke="#ead9b8" stroke-width="12.54"/></g></svg>